<svg xmlns="http://www.w3.org/2000/svg" viewBox="0 0 66.000002 57.000002">
  <g data-name="024---Canadain-Landscape">
    <path d="M59.66018742 40.9382424a19.9491264 19.9491264 0 00-9.37165627-2.245385c-.17843385 0-.34800143 0-.52643528.00997456a19.19327617 19.19327617 0 00-10.41787712 3.21402592 21.99169529 21.99169529 0 016.12327352 2.67761607 1.19251444 1.19251444 0 11-1.28782694 2.0048872 20.12756025 20.12756025 0 00-7.70147107-2.86380792 22.43722578 22.43722578 0 00-6.94672913 0 19.84605591 19.84605591 0 00-8.0428228 3.10319744 1.19362273 1.19362273 0 01-1.33548318-1.97828836 21.73900635 21.73900635 0 016.50784835-2.94471272 19.14118678 19.14118678 0 00-10.37132916-3.21402592c-.22498182-.00886628-.3867914-.00886628-.56965839-.00886628a19.94026012 19.94026012 0 00-9.3694397 2.24316844 12.44382173 12.44382173 0 00-6.30392394 6.9555954 1.19251444 1.19251444 0 001.15483276 1.52278332l14.888698.0066497a1.19251444 1.19251444 0 01.99745632 1.8386445 12.285337 12.285337 0 00-1.6624272 3.84685653 1.19251444 1.19251444 0 001.1814316 1.45961108l32.79747209.00886628a1.19251444 1.19251444 0 001.17256532-1.45517794 12.37732465 12.37732465 0 00-1.6480195-3.86348081A1.19251444 1.19251444 0 0149.93388 49.42327083h14.8676406a1.19251444 1.19251444 0 001.15372447-1.5161336 12.39838206 12.39838206 0 00-6.29616595-6.96778655z"/>
    <path d="M57.27515853 37.79403842h2.5368639a.85116273.85116273 0 00.79020707-1.1670239l-4.01974897-10.0543597-1.47401879.88662784a.85116273.85116273 0 01-.9110101-.02105741l-2.08246714-1.3920057-2.08135886 1.38757256a.85116273.85116273 0 01-.9110101.02105741l-1.47401879-.88662784-.66497088 1.65023607 3.14863712 7.86882208a15.9681674 15.9681674 0 017.14289554 1.7067586zM28.1837908 21.74607452l4.10065376-3.0777069a1.19251444 1.19251444 0 011.43079568 0l4.10065376 3.0777069 3.40686747-2.19994533-4.82990515-12.08584575V7.4492006L34.11089793 1.753725a1.19251444 1.19251444 0 00-2.2165696 0l-7.11186357 17.79240418zM11.63155732 10.09800127L7.37796026 20.73088564l1.7499817 1.05287056 2.94692928-1.96498895a1.19251444 1.19251444 0 011.32329206 0l2.95136242 1.96498895 1.75108998-1.05397884-4.25581363-10.6317761a1.19251444 1.19251444 0 00-2.2165696 0zm39.78631604 7.27921457L48.381173 24.96785843l1.24903697.7514171 2.10574112-1.40198028a.85116273.85116273 0 01.94425865 0l2.10574112 1.40198027 1.25014525-.75252537-3.03780864-7.58953431a.85116273.85116273 0 00-1.58041412 0z" data-name="Shape"/>
    <path d="M36.278703 41.31616752a20.39244032 20.39244032 0 0111.69794606-4.88753597L42.1260136 21.79927219l-3.70721266 2.39722002a1.19251444 1.19251444 0 01-1.36208202-.04765625l-4.0541058-3.03891692-4.05299751 3.0400252a1.19251444 1.19251444 0 01-1.36208202.04765625l-3.70610437-2.39611173-5.85174375 14.62935936a20.38579061 20.38579061 0 0111.69794607 4.88753596 24.85771978 24.85771978 0 016.55107145-.00221656zM1.95512273 38.69285739h3.55426935a22.35853756 22.35853756 0 019.99894546-2.3761626l4.4109735-11.02965034-.92430951-2.31188209-2.06584287 1.24349555a1.19251444 1.19251444 0 01-1.2767441-.0299237l-2.9158973-1.94725639-2.91478902 1.94282326a1.19251444 1.19251444 0 01-1.2767441.02992369l-2.0636263-1.24127898L.84683795 37.05813731a1.19251444 1.19251444 0 001.1082848 1.63472008z" data-name="Shape"/>
  </g>
</svg>