<svg xmlns="http://www.w3.org/2000/svg" viewBox="0 0 66 57">
  <path data-name="Path 236" d="M34.6 24.8V27a5 5 0 01-6.9 4.6 5 5 0 01-9.8-1.3v-5.5h-6.7v13.3h43.5V24.8zm8.2 10.3h-3.4v-3.4h3.4zm1.6-3.4v-3.4h3.4v3.4z"/>
  <path data-name="Path 237" d="M4.5 41.4a8.4 8.4 0 008.3 7.3h15.1v5h-5V57h20v-3.3h-5v-5h15a8.4 8.4 0 008.4-7.3z"/>
  <path data-name="Path 238" d="M11.2 16.3v5.2h10v8.8a1.7 1.7 0 003.4 0v-7.1h3.3V27a1.7 1.7 0 103.3 0v-5.5h23.5v-5.2H34.4v-3a4.8 4.8 0 003.2-4.6c0-3.8-3.3-7.1-3.6-7.5L32.8 0l-1.2 1.2c-.4.4-3.7 3.7-3.7 7.5a4.8 4.8 0 003.2 4.5v3z"/>
</svg>