<svg xmlns="http://www.w3.org/2000/svg" viewBox="0 0 65.999999 56.999999">
  <path style="stroke-width:1.07640588" data-name="Path 240" d="M51.067693 20.374212a1.6695056 1.6695056 0 00-1.669505 1.669505v7.013861a16.146089 16.146089 0 01-32.2857196 0v-7.013861a1.6695056 1.6695056 0 00-3.3368584 0v7.013861a19.508781 19.508781 0 0017.809136 19.410829v5.193658h-9.4637607a1.6695056 1.6695056 0 100 3.336859H44.387518a1.6695056 1.6695056 0 100-3.336859h-9.462684v-5.193658a19.508781 19.508781 0 0017.812365-19.410829v-7.013861a1.6695056 1.6695056 0 00-1.669506-1.669505z"/>
  <path style="stroke-width:1.07640588" data-name="Path 241" d="M22.1209853 12.579956h4.6759077a1.6695056 1.6695056 0 010 3.336859h-4.6759077v3.336858h4.6759077a1.6695056 1.6695056 0 010 3.336858h-4.6759077v3.336859h4.6759077a1.6695056 1.6695056 0 010 3.336858h-4.6759077a11.13219 11.13219 0 0022.2600747 0h-4.672678a1.6695056 1.6695056 0 110-3.336858h4.675907v-3.322865h-4.675907a1.6695056 1.6695056 0 110-3.336858h4.675907v-3.336859h-4.675907a1.6695056 1.6695056 0 110-3.336859h4.675907v-1.460683a11.1332664 11.1332664 0 10-22.2665328 0z"/>
</svg>