<svg xmlns="http://www.w3.org/2000/svg" width="51.77" height="51.77" viewBox="0 0 51.77 51.77">
    <path d="M48.231 36.603h-8.089a3.543 3.543 0 0 0-3.539 3.539v8.089a3.543 3.543 0 0 0 3.539 3.539h8.089a3.543 3.543 0 0 0 3.539-3.539v-8.089a3.543 3.543 0 0 0-3.539-3.539zm-6.067 7.078a1.517 1.517 0 1 1 1.517-1.517 1.517 1.517 0 0 1-1.517 1.517zm4.044 4.044a1.517 1.517 0 1 1 1.517-1.517 1.517 1.517 0 0 1-1.516 1.517z" data-name="Path 259"/>
    <path d="M11.485 17.29H8.343a7.606 7.606 0 0 0 5.914 5.914v-3.142a4.572 4.572 0 0 1-2.772-2.772z" data-name="Path 260"/>
    <path d="M28.152 26.39h3.142a7.606 7.606 0 0 0-5.915-5.914v3.142a4.572 4.572 0 0 1 2.773 2.772z" data-name="Path 261"/>
    <path d="M17.29 20.324h5.056v3.033H17.29z" data-name="Path 262"/>
    <path d="M8.45 35.49h5.807v-3.033H12.74a4.558 4.558 0 0 0-4.29 3.033z" data-name="Path 263"/>
    <path d="M25.379 32.197v3.142a7.606 7.606 0 0 0 5.914-5.915h-3.142a4.572 4.572 0 0 1-2.772 2.773z" data-name="Path 264"/>
    <path d="M17.29 32.457h5.056v3.033H17.29z" data-name="Path 265"/>
    <path d="M25.379 8.19h5.056v3.033h-5.056z" data-name="Path 266"/>
    <path d="M33.468 11.19a4.562 4.562 0 0 0 3.785-3h-3.785z" data-name="Path 267"/>
    <path d="M17.29 8.19h5.056v3.033H17.29z" data-name="Path 268"/>
    <path d="M8.343 14.257h3.142a4.572 4.572 0 0 1 2.772-2.772V8.343a7.606 7.606 0 0 0-5.914 5.914z" data-name="Path 269"/>
    <path d="M33.569 40.142a6.58 6.58 0 0 1 6.572-6.572H45.7V1.517A1.517 1.517 0 0 0 44.186 0H1.517A1.517 1.517 0 0 0 0 1.517v40.647a1.517 1.517 0 0 0 1.517 1.516h32.052zm-26.9-1.618a1.517 1.517 0 0 1-1.517-1.517 7.592 7.592 0 0 1 7.583-7.583h11.127a1.517 1.517 0 1 0 0-3.033h-8.089a10.617 10.617 0 1 1 0-21.234h23.256a1.517 1.517 0 0 1 1.517 1.517 7.592 7.592 0 0 1-7.583 7.583h-17.19a1.517 1.517 0 1 0 0 3.033h8.089a10.617 10.617 0 1 1 0 21.234z" data-name="Path 270"/>
</svg>
