<svg xmlns="http://www.w3.org/2000/svg" width="56.956" height="56.956" viewBox="0 0 56.956 56.956">
    <path d="M28.478 0A10.068 10.068 0 1 0 38.49 10.123 10.118 10.118 0 0 0 28.478 0z" data-name="Path 242"/>
    <path d="M31.815 20.135H25.14a14.963 14.963 0 0 0-6.7 1.643 41.87 41.87 0 0 1 10.033 4.157 41.872 41.872 0 0 1 10.033-4.157 14.962 14.962 0 0 0-6.691-1.643z" data-name="Path 243"/>
    <path d="M53.618 30.147a3.337 3.337 0 0 0-3.337 3.337v6.674a3.337 3.337 0 1 0 6.674 0v-6.674a3.337 3.337 0 0 0-3.337-3.337z" data-name="Path 244"/>
    <path d="M3.337 30.147A3.337 3.337 0 0 0 0 33.484v6.674a3.337 3.337 0 1 0 6.675 0v-6.674a3.337 3.337 0 0 0-3.338-3.337z" data-name="Path 245"/>
    <path d="M5.006 23.472a1.668 1.668 0 0 0-1.669 1.669v1.669a6.681 6.681 0 0 1 6.675 6.675v6.675a6.681 6.681 0 0 1-6.675 6.673v1.669a1.668 1.668 0 0 0 1.669 1.669c8.555 0 15.395 2.7 21.8 6.786V28.878c-6.435-3.691-13.357-5.406-21.8-5.406z" data-name="Path 246"/>
    <path d="M53.619 26.809V25.14a1.668 1.668 0 0 0-1.672-1.668c-8.444 0-15.366 1.715-21.8 5.406v28.078c6.409-4.084 13.249-6.786 21.8-6.786a1.668 1.668 0 0 0 1.669-1.669v-1.669a6.681 6.681 0 0 1-6.675-6.675v-6.675a6.681 6.681 0 0 1 6.678-6.673z" data-name="Path 247"/>
</svg>
