<svg xmlns="http://www.w3.org/2000/svg" width="59.552" height="50.142" viewBox="0 0 59.552 50.142">
    <g data-name="024---Canadain-Landscape">
        <path d="M53.831 36.033a18 18 0 0 0-8.456-2.026c-.161 0-.314 0-.475.009a17.318 17.318 0 0 0-9.4 2.9 19.843 19.843 0 0 1 5.525 2.416 1.076 1.076 0 1 1-1.162 1.809 18.161 18.161 0 0 0-6.949-2.584 20.245 20.245 0 0 0-6.268 0 17.907 17.907 0 0 0-7.257 2.8 1.077 1.077 0 0 1-1.205-1.785 19.615 19.615 0 0 1 5.872-2.657 17.271 17.271 0 0 0-9.358-2.9c-.203-.008-.349-.008-.514-.008a17.992 17.992 0 0 0-8.454 2.024 11.228 11.228 0 0 0-5.688 6.276 1.076 1.076 0 0 0 1.042 1.374l13.434.006a1.076 1.076 0 0 1 .9 1.659 11.085 11.085 0 0 0-1.5 3.471 1.076 1.076 0 0 0 1.066 1.317l29.593.008a1.076 1.076 0 0 0 1.058-1.313 11.168 11.168 0 0 0-1.487-3.486 1.076 1.076 0 0 1 .907-1.654H58.47a1.076 1.076 0 0 0 1.041-1.368 11.187 11.187 0 0 0-5.681-6.287z"/>
        <path d="M51.679 33.196h2.289a.768.768 0 0 0 .713-1.053l-3.627-9.072-1.33.8a.768.768 0 0 1-.822-.019l-1.879-1.256-1.878 1.252a.768.768 0 0 1-.822.019l-1.33-.8-.6 1.489 2.841 7.1a14.408 14.408 0 0 1 6.445 1.54zM25.43 18.716l3.7-2.777a1.076 1.076 0 0 1 1.291 0l3.7 2.777 3.074-1.985-4.358-10.905v-.01L30.778.677a1.076 1.076 0 0 0-2 0l-6.417 16.054zM10.495 8.206L6.657 17.8l1.579.95 2.659-1.773a1.076 1.076 0 0 1 1.194 0l2.663 1.773 1.58-.951-3.84-9.593a1.076 1.076 0 0 0-2 0zM46.394 14.774l-2.74 6.849 1.127.678 1.9-1.265a.768.768 0 0 1 .852 0l1.9 1.265 1.128-.679-2.741-6.848a.768.768 0 0 0-1.426 0z" data-name="Shape"/>
        <path d="M32.734 36.374a18.4 18.4 0 0 1 10.555-4.41l-5.279-13.2-3.345 2.163a1.076 1.076 0 0 1-1.229-.043l-3.658-2.742-3.657 2.743a1.076 1.076 0 0 1-1.229.043l-3.344-2.162-5.28 13.2a18.394 18.394 0 0 1 10.555 4.41 22.429 22.429 0 0 1 5.911-.002zM1.764 34.007h3.207a20.174 20.174 0 0 1 9.022-2.144l3.98-9.952-.834-2.086-1.864 1.122a1.076 1.076 0 0 1-1.152-.027l-2.631-1.757-2.63 1.753a1.076 1.076 0 0 1-1.152.027l-1.862-1.12L.764 32.532a1.076 1.076 0 0 0 1 1.475z" data-name="Shape"/>
    </g>
</svg>
