<svg xmlns="http://www.w3.org/2000/svg" width="56.542" height="56.739" viewBox="0 0 56.542 56.739">
    <path d="M29.973 24.731v2.11a5 5 0 0 1-6.837 4.645 5 5 0 0 1-9.817-1.314v-5.441H6.657V37.89h43.3V24.731zm8.161 10.2h-3.331v-3.4h3.331zm1.61-3.331v-3.386h3.331V31.6z" data-name="Path 236"/>
    <path d="M0 41.216a8.375 8.375 0 0 0 8.286 7.233h15.027v4.959h-5v3.331h19.988v-3.331h-5v-4.959h14.955a8.375 8.375 0 0 0 8.286-7.233z" data-name="Path 237"/>
    <path d="M6.657 16.193v5.2h9.993v8.771a1.666 1.666 0 0 0 3.331 0v-7.1h3.33v3.766a1.666 1.666 0 1 0 3.331 0v-5.44h23.316v-5.2H29.825v-3.029a4.819 4.819 0 0 0 3.146-4.514c0-3.728-3.262-7.1-3.634-7.469L28.16 0l-1.178 1.178c-.372.372-3.634 3.741-3.634 7.469a4.819 4.819 0 0 0 3.146 4.514v3.032H6.657z" data-name="Path 238"/>
</svg>
