<svg xmlns="http://www.w3.org/2000/svg" viewBox="0 0 65.999998 57.000001">
  <g data-name="VIP">
    <path d="M17.3439408 41.59425408L28.718863 15.713718h-6.04410057l-8.10885544 18.4860972L6.56967454 15.713718H0L11.3373812 41.59425408zm19.63394164 0V15.713718h-6.08164158v25.88053608zm12.31344714 0v-7.13563352h5.29328064a14.80679506 14.58244967 0 006.06287108-1.12765193 8.84653604 8.71249761 0 003.96057522-3.2535531 9.1249651 8.98670805 0 001.3890169-4.97276015 9.10118914 8.96329233 0 00-1.3890169-4.99124625 9.00983938 8.87332666 0 00-3.96057522-3.2535531 14.59844252 14.377254 0 00-6.06287108-1.14613803H43.209688v25.88053608zm4.95541166-12.01596318h-4.95541166v-8.98424324h4.95541166q2.74049281 0 4.16705071 1.16462412a4.16267093 4.09960016 0 011.4265579 3.3459836 4.1188731 4.05646593 0 01-1.4265579 3.3090114q-1.4265579 1.16462412-4.16705071 1.16462412z" data-name="Path 360"/>
    <path d="M17.3439408 41.59425408L28.718863 15.713718h-6.04410057l-8.10885544 18.4860972L6.56967454 15.713718H0L11.3373812 41.59425408zm19.63394164 0V15.713718h-6.08164158v25.88053608zm12.31344714 0v-7.13563352h5.29328064a14.80679506 14.58244967 0 006.06287108-1.12765193 8.84653604 8.71249761 0 003.96057522-3.2535531 9.1249651 8.98670805 0 001.3890169-4.97276015 9.10118914 8.96329233 0 00-1.3890169-4.99124625 9.00983938 8.87332666 0 00-3.96057522-3.2535531 14.59844252 14.377254 0 00-6.06287108-1.14613803H43.209688v25.88053608zm4.95541166-12.01596318h-4.95541166v-8.98424324h4.95541166q2.74049281 0 4.16705071 1.16462412a4.16267093 4.09960016 0 011.4265579 3.3459836 4.1188731 4.05646593 0 01-1.4265579 3.3090114q-1.4265579 1.16462412-4.16705071 1.16462412z" data-name="Path 361" style="fill:#232323"/>
  </g>
</svg>