<svg xmlns="http://www.w3.org/2000/svg" viewBox="0 0 65.999998 57">
  <g data-name="Group 129">
    <path d="M25.28528562 20.1581235a1.27588658 1.27588658 0 01-1.27588658-1.27588659V6.270758h-4.4641365v12.61221218a1.27588658 1.27588658 0 01-1.27588658 1.27588658H0v4.46486977h18.26864269a1.27588658 1.27588658 0 011.27588658 1.27588658v12.6070793h4.46486977V25.89887984a1.27588658 1.27588658 0 011.27588658-1.27588658H43.5561281v-4.46486977zm0 0" data-name="Path 248"/>
    <path d="M26.5611722 15.80324395l9.42836187-9.42836187a8.94587143 8.94587143 0 00-1.3675451-.10412408H26.5611722zm0 0" data-name="Path 249"/>
    <path d="M28.36574511 17.60635033h15.1881832v-2.403653a8.94147182 8.94147182 0 00-4.84470267-7.9405608zm0 0" data-name="Path 250"/>
    <path d="M28.3613455 27.17476642l10.32074922 10.35521281a8.94587143 8.94587143 0 004.87330012-7.95522615v-2.39998666zm0 0" data-name="Path 251"/>
    <path d="M16.99202284 15.80324395V6.270758h-8.0600835a8.94587143 8.94587143 0 00-1.36607857.10412408zm0 0" data-name="Path 252"/>
    <path d="M26.5611722 28.98447221v9.5222202h8.06081677a8.96420313 8.96420313 0 001.33161496-.0989912zm0 0" data-name="Path 253"/>
    <path d="M15.1881832 17.60635033L4.84470266 7.26213653A8.94147182 8.94147182 0 000 15.20269734v2.40291973zm0 0" data-name="Path 254"/>
    <path d="M15.1881832 27.17476642H0v2.39998666a8.94147182 8.94147182 0 004.84690247 7.94202733zm0 0" data-name="Path 255"/>
    <path d="M16.9927561 28.97933934l-9.42396226 9.423229a8.98986752 8.98986752 0 001.36241223.1033908h1.32574881l3.10685715 3.9413163a1.27588658 1.27588658 0 002.00475513 0l1.62418895-2.0604835zm0 0" data-name="Path 256"/>
    <g data-name="english-language">
      <path d="M50.66882916 37.19267589a.7735979.7735979 0 00.7735979-.7735979v-7.64505373h2.70649274v7.64505373a.7735979.7735979 0 00.77286464.7735979H65.9941335v2.70649274H54.92178443a.7735979.7735979 0 00-.7735979.7735979v7.64285392h-2.70355966v-7.64285392a.7735979.7735979 0 00-.7757977-.7735979H39.5964801v-2.70649274zm0 0" data-name="Path 248"/>
      <path d="M49.89743107 34.551444l-5.7143587-5.71435868a5.4217847 5.4217847 0 01.82785975-.06306106h4.88649895zm0 0" data-name="Path 249"/>
      <path d="M48.80412826 35.64621336H39.5964801v-1.45700382a5.42031816 5.42031816 0 012.93673894-4.8139054zm0 0" data-name="Path 250"/>
      <path d="M48.80632806 41.44563116l-6.25624385 6.27750863a5.42105143 5.42105143 0 01-2.95433738-4.82270462v-1.45480401zm0 0" data-name="Path 251"/>
      <path d="M55.6983154 34.551444v-5.77741974h4.88649896a5.42105143 5.42105143 0 01.82785974.06306106zm0 0" data-name="Path 252"/>
      <path d="M49.89743107 42.54333358v5.77228687h-4.88649895a5.43205046 5.43205046 0 01-.80659497-.06012799zm0 0" data-name="Path 253"/>
      <path d="M56.79235149 35.64621336l6.27090921-6.27017595a5.42031816 5.42031816 0 012.93673895 4.8139054v1.45700382zm0 0" data-name="Path 254"/>
      <path d="M56.79235149 41.44563116h9.20764816v1.454804a5.42031816 5.42031816 0 01-2.93820548 4.81463868zm0 0" data-name="Path 255"/>
      <path d="M55.6983154 42.5404005l5.71289216 5.71289216a5.44891562 5.44891562 0 01-.8263932.06306106h-.80659497l-1.8830326 2.38898763a.7735979.7735979 0 01-1.21502533 0l-.98477913-1.24655585zm0 0" data-name="Path 256"/>
    </g>
  </g>
</svg>