<svg xmlns="http://www.w3.org/2000/svg" width="36.2" height="52.956" viewBox="0 0 36.2 52.956">
    <path d="M34.649 18.928a1.551 1.551 0 0 0-1.551 1.551v6.516a15 15 0 0 1-29.994 0v-6.516a1.551 1.551 0 0 0-3.1 0v6.516a18.124 18.124 0 0 0 16.545 18.033v4.825H7.757a1.551 1.551 0 1 0 0 3.1h20.686a1.551 1.551 0 1 0 0-3.1h-8.791v-4.825A18.124 18.124 0 0 0 36.2 26.995v-6.516a1.551 1.551 0 0 0-1.551-1.551z" data-name="Path 240"/>
    <path d="M7.757 11.687h4.344a1.551 1.551 0 0 1 0 3.1H7.757v3.1h4.344a1.551 1.551 0 0 1 0 3.1H7.757v3.1h4.344a1.551 1.551 0 0 1 0 3.1H7.757a10.342 10.342 0 0 0 20.68 0h-4.341a1.551 1.551 0 1 1 0-3.1h4.344V21h-4.344a1.551 1.551 0 1 1 0-3.1h4.344v-3.1h-4.344a1.551 1.551 0 1 1 0-3.1h4.344v-1.357a10.343 10.343 0 1 0-20.686 0z" data-name="Path 241"/>
</svg>
