<?xml version="1.0" encoding="UTF-8" standalone="no"?>
<svg
   xmlns:dc="http://purl.org/dc/elements/1.1/"
   xmlns:cc="http://creativecommons.org/ns#"
   xmlns:rdf="http://www.w3.org/1999/02/22-rdf-syntax-ns#"
   xmlns:svg="http://www.w3.org/2000/svg"
   xmlns="http://www.w3.org/2000/svg"
   xmlns:sodipodi="http://sodipodi.sourceforge.net/DTD/sodipodi-0.dtd"
   xmlns:inkscape="http://www.inkscape.org/namespaces/inkscape"
   width="65"
   height="25.884476"
   viewBox="0 0 64.999998 25.884476"
   version="1.1"
   id="svg7"
   sodipodi:docname="reservation-friends-vip.svg"
   inkscape:version="0.92.4 (f8dce91, 2019-08-02)">
  <metadata
     id="metadata13">
    <rdf:RDF>
      <cc:Work
         rdf:about="">
        <dc:format>image/svg+xml</dc:format>
        <dc:type
           rdf:resource="http://purl.org/dc/dcmitype/StillImage" />
        <dc:title></dc:title>
      </cc:Work>
    </rdf:RDF>
  </metadata>
  <defs
     id="defs11" />
  <sodipodi:namedview
     pagecolor="#ffffff"
     bordercolor="#666666"
     borderopacity="1"
     objecttolerance="10"
     gridtolerance="10"
     guidetolerance="10"
     inkscape:pageopacity="0"
     inkscape:pageshadow="2"
     inkscape:window-width="1920"
     inkscape:window-height="1135"
     id="namedview9"
     showgrid="false"
     fit-margin-top="0"
     fit-margin-left="0"
     fit-margin-right="0"
     fit-margin-bottom="0"
     inkscape:zoom="3.3655668"
     inkscape:cx="11.736507"
     inkscape:cy="21"
     inkscape:window-x="0"
     inkscape:window-y="0"
     inkscape:window-maximized="1"
     inkscape:current-layer="svg7" />
  <g
     id="prefix__Page-1"
     transform="matrix(0.61620324,0,0,0.61620324,-0.14172675,0.0039394)">
    <g
       id="prefix__vip"
       transform="translate(0,-16)">
      <g
         id="prefix__VIP-2"
         data-name="VIP">
        <path
           id="prefix__Path_360"
           d="M 27.95,58 46.13,16 H 36.47 L 23.51,46 10.73,16 H 0.23 l 18.12,42 z m 31.38,0 V 16 h -9.72 v 42 z m 19.68,0 V 46.42 h 8.46 a 23.665,23.665 0 0 0 9.69,-1.83 14.139,14.139 0 0 0 6.33,-5.28 14.584,14.584 0 0 0 2.22,-8.07 14.546,14.546 0 0 0 -2.22,-8.1 A 14.4,14.4 0 0 0 97.16,17.86 23.332,23.332 0 0 0 87.47,16 H 69.29 V 58 Z M 86.93,38.5 H 79.01 V 23.92 h 7.92 q 4.38,0 6.66,1.89 a 6.653,6.653 0 0 1 2.28,5.43 6.583,6.583 0 0 1 -2.28,5.37 q -2.28,1.89 -6.66,1.89 z"
           data-name="Path 360"
           inkscape:connector-curvature="0" />
        <path
           id="prefix__Path_361"
           d="M 27.95,58 46.13,16 H 36.47 L 23.51,46 10.73,16 H 0.23 l 18.12,42 z m 31.38,0 V 16 h -9.72 v 42 z m 19.68,0 V 46.42 h 8.46 a 23.665,23.665 0 0 0 9.69,-1.83 14.139,14.139 0 0 0 6.33,-5.28 14.584,14.584 0 0 0 2.22,-8.07 14.546,14.546 0 0 0 -2.22,-8.1 A 14.4,14.4 0 0 0 97.16,17.86 23.332,23.332 0 0 0 87.47,16 H 69.29 V 58 Z M 86.93,38.5 H 79.01 V 23.92 h 7.92 q 4.38,0 6.66,1.89 a 6.653,6.653 0 0 1 2.28,5.43 6.583,6.583 0 0 1 -2.28,5.37 q -2.28,1.89 -6.66,1.89 z"
           data-name="Path 361"
           style="fill:#232323"
           inkscape:connector-curvature="0" />
      </g>
    </g>
  </g>
</svg>
