<svg xmlns="http://www.w3.org/2000/svg" viewBox="0 0 66 57" version="1.1" id="svg12">
  <defs id="defs4">
    <style id="style2">
      .cls-1{fill:#232323}
    </style>
  </defs>
  <g id="friends-talking" transform="matrix(1.00155 0 0 1.00155 0 1.3154006)">
    <g id="Group_62" data-name="Group 62">
      <path id="Path_231" d="M29.584 145.058c.586-.388 1.133-.752 1.629-1.052a2.5 2.5 0 00-2.586-4.279c-.551.333-1.159.735-1.808 1.164-2.1 1.391-5.291 3.557-7.082 3.05-1.309-.37-1.467-1.272-1.9-1.925a5.483 5.483 0 00-4.678-2.81 10.646 10.646 0 00-3.523.761C.921 143.075.9 145.138.9 146.147c0 .92.02 1.809 2.6 3.31H.008L0 178.525h21.772l1.445-13.3S16 164.689 12.4 164.168a6.024 6.024 0 01-5.075-4.607l-2.248-9.27c1.288.627 2.961 1.347 5.169 2.2a2.5010442 2.5010442 0 101.8-4.667 74.719 74.719 0 01-4.14-1.745c.216-.1.453-.2.686-.3l3.492 1.387c2.108.814 2.7 2.519 2.073 4.14a3.1 3.1 0 01-4.334 1.741c-.761-.3-1.446-.567-2.1-.835l1.084 7.047c.309 2.006 1.54 3.044 3.674 3.619 1.03.43 12.2 1.278 12.2 1.278-.376 4.376-1.142 11.556-1.234 12.4a3.413 3.413 0 002.627 3.811 3.473 3.473 0 00.752.083 3.411 3.411 0 003.323-2.662c.15-.668 1.46-16.3 1.473-16.455a3.666 3.666 0 00-.925-2.682c-.823-.9-1.561-1.7-10.333-1.993l-1.192-7.737a7.214 7.214 0 001.071.089c3.398-.01 6.776-2.25 9.341-3.952z" class="cls-1" data-name="Path 231" transform="translate(0 -126.003)" style="fill:#232323"/>
      <circle id="Ellipse_2" cx="6.4400001" cy="6.4400001" r="6.4400001" class="cls-1" data-name="Ellipse 2" transform="translate(5.68)" style="fill:#232323"/>
      <path id="Path_232" d="M278.566 149.456h-3.491c2.581-1.5 2.6-2.39 2.6-3.309 0-1.009-.022-3.071-8.74-6.18a10.646 10.646 0 00-3.522-.761 5.483 5.483 0 00-4.678 2.81c-.431.654-.589 1.556-1.9 1.925-1.791.506-4.983-1.659-7.082-3.05-.649-.429-1.257-.832-1.808-1.164a2.5 2.5 0 00-2.586 4.279c.5.3 1.043.665 1.629 1.052 2.565 1.7 5.942 3.941 9.336 3.941a7.211 7.211 0 001.071-.089l-1.192 7.737c-8.771.3-9.509 1.093-10.333 1.993a3.665 3.665 0 00-.925 2.682c.012.156 1.323 15.787 1.473 16.455a3.411 3.411 0 003.323 2.662 3.473 3.473 0 00.752-.083 3.414 3.414 0 002.627-3.811c-.092-.84-.859-8.02-1.234-12.4 0 0 11.17-.848 12.2-1.278 2.133-.575 3.364-1.613 3.674-3.619l1.084-7.047c-.649.268-1.335.534-2.1.835a3.1 3.1 0 01-4.334-1.741c-.623-1.621-.034-3.326 2.073-4.14l3.492-1.387c.234.1.471.205.686.3a74.719 74.719 0 01-4.14 1.745 2.5010442 2.5010442 0 101.8 4.667c2.208-.851 3.88-1.571 5.169-2.2l-2.248 9.27a6.024 6.024 0 01-5.075 4.607c-3.6.521-10.815 1.053-10.815 1.053l1.445 13.3h21.772z" class="cls-1" data-name="Path 232" transform="translate(-212.671 -126.003)" style="fill:#232323"/>
      <circle id="Ellipse_3" cx="6.4400001" cy="6.4400001" r="6.4400001" class="cls-1" data-name="Ellipse 3" transform="translate(47.342)" style="fill:#232323"/>
    </g>
  </g>
</svg>