<svg xmlns="http://www.w3.org/2000/svg" viewBox="0 0 66 57">
  <path data-name="Path 259" d="M57.5 40.3h-9a3.9 3.9 0 00-3.8 3.9v8.9a3.9 3.9 0 003.9 3.9h8.9a3.9 3.9 0 003.9-3.9v-8.9a3.9 3.9 0 00-4-3.9zm-6.7 7.8a1.7 1.7 0 111.7-1.7 1.7 1.7 0 01-1.7 1.7zm4.5 4.4a1.7 1.7 0 111.6-1.6 1.7 1.7 0 01-1.6 1.6z"/>
  <path data-name="Path 260" d="M17 19h-3.4a8.4 8.4 0 006.5 6.5v-3.4a5 5 0 01-3-3z"/>
  <path data-name="Path 261" d="M35.4 29h3.4a8.4 8.4 0 00-6.5-6.5V26a5 5 0 013 3z"/>
  <path data-name="Path 262" d="M23.4 22.4H29v3.3h-5.6z"/>
  <path data-name="Path 263" d="M13.7 39H20v-3.3h-1.7a5 5 0 00-4.7 3.4z"/>
  <path data-name="Path 264" d="M32.3 35.4V39a8.4 8.4 0 006.5-6.5h-3.4a5 5 0 01-3 3z"/>
  <path data-name="Path 265" d="M23.4 35.7H29v3.4h-5.6z"/>
  <path data-name="Path 266" d="M32.3 9H38v3.4h-5.6z"/>
  <path data-name="Path 267" d="M41.2 12.3A5 5 0 0045.4 9h-4.2z"/>
  <path data-name="Path 268" d="M23.4 9H29v3.4h-5.6z"/>
  <path data-name="Path 269" d="M13.6 15.7H17a5 5 0 013-3V9.1a8.4 8.4 0 00-6.4 6.5z"/>
  <path data-name="Path 270" d="M41.3 44.2a7.2 7.2 0 017.3-7.2h6.1V1.7A1.7 1.7 0 0053 0H6a1.7 1.7 0 00-1.6 1.7v44.7A1.7 1.7 0 006 48.1h35.2zm-29.6-1.8a1.7 1.7 0 01-1.6-1.7 8.4 8.4 0 018.3-8.3h12.3a1.7 1.7 0 100-3.3h-9a11.7 11.7 0 110-23.4h25.7A1.7 1.7 0 0149 7.3a8.4 8.4 0 01-8.3 8.4h-19a1.7 1.7 0 100 3.3h9a11.7 11.7 0 110 23.4z"/>
</svg>