<svg xmlns="http://www.w3.org/2000/svg" viewBox="0 0 65.999999 56.999995">
  <path data-name="Path 242" d="M33.22343855.00015502a10.07557315 10.07557315 0 1010.01953103 10.13061452A10.12561076 10.12561076 0 0033.22343855.00015502z"/>
  <path data-name="Path 243" d="M36.56294864 20.15030057h-6.68002093a14.97425517 14.97425517 0 00-6.70503974 1.64423586 41.90149461 41.90149461 0 0110.04054682 4.1601269 41.90349612 41.90349612 0 0110.04054682-4.1601269 14.97325442 14.97325442 0 00-6.69603297-1.64423586z"/>
  <path data-name="Path 244" d="M58.38234886 30.1698316a3.3395101 3.3395101 0 00-3.3395101 3.33951008v6.67902019a3.3395101 3.3395101 0 106.6790202 0v-6.67902019a3.3395101 3.3395101 0 00-3.3395101-3.33951009z"/>
  <path data-name="Path 245" d="M8.0635275 30.1698316a3.3395101 3.3395101 0 00-3.3395101 3.33951008v6.67902019a3.34001047 3.34001047 0 106.68002093 0v-6.67902019A3.3395101 3.3395101 0 008.0635275 30.1698316z"/>
  <path data-name="Path 246" d="M9.73378291 23.48981066a1.66925467 1.66925467 0 00-1.67025542 1.67025542v1.67025542a6.68602545 6.68602545 0 016.68002094 6.68002094v6.68002093a6.68602545 6.68602545 0 01-6.68002094 6.67801943v1.67025542a1.66925467 1.66925467 0 001.67025542 1.67025543c8.56143507 0 15.40658012 2.70203094 21.81639796 6.79110442V28.89987705c-6.4398404-3.69377637-13.36704713-5.4100664-21.81639796-5.4100664z"/>
  <path data-name="Path 247" d="M58.38334961 26.82932075v-1.67025542a1.66925467 1.66925467 0 00-1.67325768-1.66925467c-8.45035157 0-15.3775583 1.71629002-21.81639796 5.4100664v28.09912026c6.41382085-4.08707198 13.2589659-6.79110443 21.81639796-6.79110443a1.66925467 1.66925467 0 001.67025543-1.67025542v-1.67025542a6.68602545 6.68602545 0 01-6.68002094-6.68002094v-6.68002093a6.68602545 6.68602545 0 016.6830232-6.67801943z"/>
</svg>