<svg xmlns="http://www.w3.org/2000/svg" viewBox="0 0 290 116">
    <defs>
        <style>
            .cls-1,.cls-4{fill:#fff}.cls-1{stroke:#707070}.cls-2{clip-path:url(#clip-path)}.cls-3{opacity:.05}.cls-5{fill:#09a3cb;opacity:.747}.cls-6{fill:none;stroke:#fff;stroke-width:5px}
        </style>
        <clipPath id="clip-path">
            <path id="Rectangle_8" d="M0 0h290v116H0z" class="cls-1" data-name="Rectangle 8" transform="translate(0 133)"/>
        </clipPath>
    </defs>
    <g id="bg_pattern" class="cls-2" data-name="bg pattern" transform="rotate(180 145 124.5)">
        <g id="figure" class="cls-3" transform="translate(-1271.251 -2563.3)">
            <path id="Path_42" d="M1420.389 2677.212l24.985 44.107H1554.2l25.66-42.5 26.681 48.472s-44.579 37.681-50.757 38.873-125.5 2.368-125.5 2.368l-50.315-24.7 10.758-51.365 11.171-34.156 20.421-42.141 28.169 4.529-2.387 12.814z" class="cls-4" data-name="Path 42" transform="translate(-82.186 -68.962)"/>
            <path id="Path_43" d="M1517.6 2691.068l-26.483-48.512 26.483-41.048-21.591-46.068h-54.4l-27.848-45.44h-45.535l-27.627 45.435h-56.049l-20.5 42.424 21.881 44.693-21.881 47.01 20.5 39.91h56.05l27.244 45.338h45.918l30.654-45.338 51.6 2.9z" class="cls-5" data-name="Path 43" transform="translate(26.517 10.178)"/>
            <path id="Line_51" d="M0 0l156.641 264.79" class="cls-6" data-name="Line 51" transform="translate(1308.119 2556.694)"/>
            <path id="Line_52" d="M0 0l162.582 282.752" class="cls-6" data-name="Line 52" transform="translate(1388.232 2509.569)"/>
            <path id="Line_53" d="M0 0l155.513 268.614" class="cls-6" data-name="Line 53" transform="translate(1433.001 2502.5)"/>
            <path id="Line_54" d="M0 0l155.013 267.973" class="cls-6" data-name="Line 54" transform="translate(1272.775 2580.257)"/>
            <path id="Line_55" d="M153.333 0L0 268.535" class="cls-6" data-name="Line 55" transform="translate(1244.5 2507.292)"/>
            <path id="Line_56" d="M160.164 0L0 269.051" class="cls-6" data-name="Line 56" transform="translate(1284.619 2514.281)"/>
            <path id="Line_57" d="M163.557 0L0 274.594" class="cls-6" data-name="Line 57" transform="translate(1375.476 2537.844)"/>
            <path id="Path_44" d="M152.083 0L-5.655 271.189" class="cls-6" data-name="Path 44" transform="translate(1419.938 2563.763)"/>
            <path id="Line_58" d="M54.194 0L0 91.894" class="cls-6" data-name="Line 58" transform="translate(1390.588 2606.175)"/>
            <path id="Line_59" d="M0 0l54.113 91.019" class="cls-6" data-name="Line 59" transform="translate(1390.588 2606.175)"/>
            <path id="Line_60" d="M0 0h108.388" class="cls-6" data-name="Line 60" transform="translate(1364.669 2653.301)"/>
            <path id="Line_61" d="M0 0h285.108" class="cls-6" data-name="Line 61" transform="translate(1275.131 2608.25)"/>
            <path id="Line_62" d="M0 0h285.108" class="cls-6" data-name="Line 62" transform="translate(1275.131 2563.763)"/>
            <path id="Line_63" d="M0 0h285.108" class="cls-6" data-name="Line 63" transform="translate(1275.131 2697.326)"/>
            <path id="Line_64" d="M0 0h285.108" class="cls-6" data-name="Line 64" transform="translate(1275.131 2739.689)"/>
        </g>
    </g>
</svg>
