<svg xmlns="http://www.w3.org/2000/svg" width="106.63" height="106.24" viewBox="0 0 106.63 106.24"><g id="_" data-name="!" transform="translate(-.47)"><path id="Union_1" fill="#f0f8fa" d="M1269.3 1738.44a2.58 2.58 0 01-.82-1.93 2.51 2.51 0 01.8-1.9 3.18 3.18 0 014.14 0 2.51 2.51 0 01.81 1.9 2.58 2.58 0 01-.82 1.93 3.05 3.05 0 01-4.1 0zm.2-6.73l-.94-13.71h5.58l-.93 13.71zm89.15-5.56a8.62 8.62 0 01-2.75-6.45 8.38 8.38 0 012.7-6.35 10.61 10.61 0 0113.8 0 8.38 8.38 0 012.7 6.35 8.62 8.62 0 01-2.75 6.45 10.18 10.18 0 01-13.7 0zm.65-22.45l-3.1-45.7h18.6l-3.1 45.7zm-47.7-29.81a5.17 5.17 0 01-1.66-3.87 5.03 5.03 0 011.62-3.81 6.37 6.37 0 018.28 0 5.03 5.03 0 011.62 3.81 5.17 5.17 0 01-1.65 3.87 6.11 6.11 0 01-8.22 0zm.38-13.47l-1.86-27.42h11.16l-1.86 27.42z" data-name="Union 1" transform="translate(-1268 -1633)"/></g></svg>