<svg xmlns="http://www.w3.org/2000/svg" id="touch-screen" width="16.061" height="17.976" viewBox="0 0 16.061 17.976">
    <defs>
        <style>
            .cls-1{fill:#50acde}
        </style>
    </defs>
    <g id="Group_34" data-name="Group 34">
        <path id="Path_161" d="M114.541 1.711l.57-1.711h-4.3l.57 1.711z" class="cls-1" data-name="Path 161" transform="translate(-107.881)"/>
        <path id="Path_162" d="M27.86 460.224a1.637 1.637 0 0 1-.592-.111v.768a1.053 1.053 0 0 0 1.053 1.053h8.057a1.053 1.053 0 0 0 1.053-1.053v-.768a1.636 1.636 0 0 1-.592.111H27.86z" class="cls-1" data-name="Path 162" transform="translate(-27.268 -443.959)"/>
    </g>
    <path id="Path_163" d="M205.641 125.1a36.113 36.113 0 0 0 6.725 6.725 1.113 1.113 0 0 0 1.628-.3l1.224-2.192-1.563-1.563-1.422 1.422-.364-.268a15.754 15.754 0 0 1-3.319-3.318l-.273-.365 1.425-1.425-1.563-1.563-2.192 1.224a1.113 1.113 0 0 0-.3 1.628z" class="cls-1" data-name="Path 163" transform="translate(-199.157 -117.958)"/>
    <g id="Group_35" data-name="Group 35">
        <path id="Path_164" d="M32.916 7.784a2.167 2.167 0 0 1 .605-3.175l.014-.008 2.9-1.617 1 1V1.053A1.053 1.053 0 0 0 36.379 0h-.77l-.921 2.764h-4.676L29.091 0h-.77a1.053 1.053 0 0 0-1.053 1.053v13.566a.593.593 0 0 0 .592.592h8.98a.593.593 0 0 0 .592-.592V12.7a37.165 37.165 0 0 1-4.516-4.913z" class="cls-1" data-name="Path 164" transform="translate(-27.268)"/>
    </g>
</svg>
