<svg xmlns="http://www.w3.org/2000/svg" id="whatsapp-2" width="30.376" height="30.376" viewBox="0 0 30.376 30.376">
    <defs>
        <style>
            .cls-1{fill:#232323}
        </style>
    </defs>
    <g id="Group_122" data-name="Group 122">
        <g id="Group_121" data-name="Group 121">
            <path id="Path_277" d="M26.114 4.262A14.552 14.552 0 0 0 3.08 21.576L0 30.376 8.8 27.3A14.552 14.552 0 0 0 26.114 4.262zM15.825 27.32a12.755 12.755 0 0 1-6.483-1.767l-.357-.211-6.085 2.13 2.133-6.082-.211-.357a12.77 12.77 0 1 1 11 6.287z" class="cls-1" data-name="Path 277"/>
        </g>
    </g>
    <g id="Group_124" data-name="Group 124" transform="translate(7.365 6.206)">
        <g id="Group_123" data-name="Group 123">
            <path id="Path_278" d="M140.418 116.462l-2.1-2.1a1.784 1.784 0 0 0-2.52 0l-.8.8a11.509 11.509 0 0 1-4.62-4.62l.8-.8a1.782 1.782 0 0 0 0-2.52l-2.1-2.1a1.782 1.782 0 0 0-2.52 0l-1.68 1.68c-.948.948-.993 2.585-.126 4.608a20.4 20.4 0 0 0 9.377 9.377 6.737 6.737 0 0 0 2.6.619 2.741 2.741 0 0 0 2.011-.745l1.68-1.68a1.782 1.782 0 0 0 0-2.52zm-2.94 2.94c-.375.375-1.414.276-2.646-.252a18.665 18.665 0 0 1-8.441-8.441c-.528-1.232-.627-2.271-.252-2.646l1.68-1.68 2.1 2.1-1.7 1.7.269.567a13.287 13.287 0 0 0 6.3 6.3l.567.269 1.7-1.7 2.1 2.1z" class="cls-1" data-name="Path 278" transform="translate(-124.134 -104.601)"/>
        </g>
    </g>
</svg>
