<svg xmlns="http://www.w3.org/2000/svg" width="18.82" height="17.2" viewBox="0 0 18.82 17.2"><defs><style>.cls-1{fill:#ff6e4b}</style></defs><g id="warning" transform="translate(0 -20.88)"><g id="Group_128" data-name="Group 128" transform="translate(0 20.88)"><path id="Path_286" d="M219.2 333.38a.97.97 0 000 1.94.97.97 0 000-1.94z" class="cls-1" data-name="Path 286" transform="translate(-209.78 -321.3)"/><path id="Path_287" d="M18.36 36.4a3.3 3.3 0 000-3.34l-6.05-10.5a3.34 3.34 0 00-5.8 0L.45 33.06a3.35 3.35 0 002.9 5.02h12.1a3.33 3.33 0 002.9-1.68zm-1.32-.76a1.83 1.83 0 01-1.6.93H3.34a1.8 1.8 0 01-1.57-.9 1.83 1.83 0 010-1.85l6.06-10.5a1.82 1.82 0 013.17 0l6.06 10.5a1.8 1.8 0 01-.02 1.82z" class="cls-1" data-name="Path 287" transform="translate(0 -20.88)"/><path id="Path_288" d="M218.47 157.2a1.05 1.05 0 00-.74 1.06l.06.92.2 3.47a.7.7 0 00.72.68.72.72 0 00.73-.7c0-.24 0-.46.02-.7l.13-2.24.1-1.45a1.2 1.2 0 00-.1-.48.97.97 0 00-1.12-.56z" class="cls-1" data-name="Path 288" transform="translate(-209.3 -151.9)"/></g></g></svg>