<svg xmlns="http://www.w3.org/2000/svg" width="19.16" height="19.38" viewBox="0 0 19.16 19.38"><defs><style>.cls-1{fill:#50acde}</style></defs><g id="valentines-day"><path id="Path_223" d="M373.24 39.57a.57.57 0 00-.57-.57h-2.27a.57.57 0 00-.57.57v.05l3.4 3z" class="cls-1" data-name="Path 223" transform="translate(-355.94 -37.52)"/><path id="Path_224" d="M21.96 8.1l-9-7.96a.57.57 0 00-.76 0l-9 7.95a.57.57 0 00.74.86l1.22-1.08v10.38h-.53a.57.57 0 100 1.13h15.9a.57.57 0 100-1.13H20V7.87l1.22 1.08a.57.57 0 10.75-.86zm-6.62 6.25a5.16 5.16 0 01-2.76 1.72c-.8 0-2-.97-2.77-1.8a5.86 5.86 0 01-1.79-3.5 2.67 2.67 0 014.56-1.88 2.67 2.67 0 014.56 1.89 5.72 5.72 0 01-1.8 3.57z" class="cls-1" data-name="Path 224" transform="translate(-3)"/><path id="Path_225" d="M170.9 244a1.52 1.52 0 00-1.37.86.57.57 0 01-1.02 0 1.53 1.53 0 00-2.91.67 4.66 4.66 0 001.46 2.7 5.04 5.04 0 001.96 1.46 4.72 4.72 0 001.95-1.38 4.48 4.48 0 001.47-2.78 1.53 1.53 0 00-1.53-1.53z" class="cls-1" data-name="Path 225" transform="translate(-159.44 -234.76)"/></g></svg>