<svg xmlns="http://www.w3.org/2000/svg" width="28.267" height="30.876" viewBox="0 0 28.267 30.876">
    <defs>
        <style>
            .cls-1{fill:#232323;stroke:#232323;stroke-width:.5px}
        </style>
    </defs>
    <g id="viber" transform="translate(.25 .25)">
        <g id="Group_120" data-name="Group 120">
            <path id="Path_272" d="M19.031 0h-5.786a11 11 0 0 0-10.99 10.988V16.2A11.009 11.009 0 0 0 9.2 26.419V29.8a.578.578 0 0 0 .967.429l3.355-3.038h5.513A11 11 0 0 0 30.021 16.2v-5.212A11 11 0 0 0 19.031 0zm9.833 16.2a9.843 9.843 0 0 1-9.833 9.831h-5.737a.577.577 0 0 0-.388.15l-2.553 2.312v-2.475a.577.577 0 0 0-.386-.545A9.852 9.852 0 0 1 3.412 16.2v-5.212a9.843 9.843 0 0 1 9.833-9.831h5.786a9.843 9.843 0 0 1 9.833 9.831z" class="cls-1" data-name="Path 272" transform="translate(-2.255)"/>
            <path id="Path_273" d="M27.752 21.855l-3.552-2.31a1.731 1.731 0 0 0-2.4.509l-.167.257a5.764 5.764 0 0 1-4.251-4.1l.421-.366a1.738 1.738 0 0 0 .17-2.449l-2.781-3.2a.579.579 0 0 0-.816-.057l-1.751 1.521c-1.532 1.332-.816 3.3-.581 3.949a.575.575 0 0 0 .038.084 26.433 26.433 0 0 0 3.853 5.082 31.784 31.784 0 0 0 6.727 4.672 2.895 2.895 0 0 0 4-.85l1.26-1.94a.58.58 0 0 0-.17-.802zm-2.06 2.111a1.754 1.754 0 0 1-2.449.482 31.485 31.485 0 0 1-6.483-4.483 25.823 25.823 0 0 1-3.646-4.8c-.458-1.285-.377-2.074.268-2.636l1.31-1.138 2.4 2.763a.572.572 0 0 1-.056.816l-.71.617a.578.578 0 0 0-.174.607 7.038 7.038 0 0 0 5.281 5.269l.25.083a.576.576 0 0 0 .668-.233l.41-.632a.575.575 0 0 1 .8-.168l3.071 1.994z" class="cls-1" data-name="Path 273" transform="translate(-6.224 -4.215)"/>
            <path id="Path_274" d="M28 16.23a.578.578 0 1 0-.317 1.112 2.617 2.617 0 0 1 1.792 1.8.579.579 0 0 0 .556.422.592.592 0 0 0 .157-.021.579.579 0 0 0 .4-.714A3.782 3.782 0 0 0 28 16.23z" class="cls-1" data-name="Path 274" transform="translate(-12.797 -6.832)"/>
            <path id="Path_275" d="M32.354 18a.592.592 0 0 0 .157-.021.578.578 0 0 0 .4-.714 7.346 7.346 0 0 0-5.026-5.038.579.579 0 0 0-.316 1.113 6.181 6.181 0 0 1 4.231 4.235.579.579 0 0 0 .554.425z" class="cls-1" data-name="Path 275" transform="translate(-12.748 -5.143)"/>
            <path id="Path_276" d="M27.454 7.565a.579.579 0 0 0-.317 1.113 10.472 10.472 0 0 1 7.163 7.183.579.579 0 0 0 .556.422.592.592 0 0 0 .157-.021.579.579 0 0 0 .4-.714 11.638 11.638 0 0 0-7.959-7.983z" class="cls-1" data-name="Path 276" transform="translate(-12.566 -3.18)"/>
        </g>
    </g>
</svg>
