<svg xmlns="http://www.w3.org/2000/svg" viewBox="0 0 21.244 21.243">
    <defs>
        <style>
            .cls-1{fill:#50acde;stroke:#50acde;stroke-width:.3px}
        </style>
    </defs>
    <g id="instagram-3" transform="translate(.15 .15)">
        <path id="Path_124" d="M15.274 0H5.669A5.676 5.676 0 0 0 0 5.669v9.605a5.676 5.676 0 0 0 5.669 5.669h9.605a5.676 5.676 0 0 0 5.669-5.669V5.669A5.676 5.676 0 0 0 15.274 0zm4.441 15.274a4.446 4.446 0 0 1-4.441 4.441H5.669a4.446 4.446 0 0 1-4.441-4.441V5.669a4.446 4.446 0 0 1 4.441-4.441h9.605a4.446 4.446 0 0 1 4.441 4.441zm0 0" class="cls-1" data-name="Path 124"/>
        <path id="Path_125" d="M121.73 116a5.727 5.727 0 1 0 5.727 5.727A5.733 5.733 0 0 0 121.73 116zm0 10.225a4.5 4.5 0 1 1 4.5-4.5 4.5 4.5 0 0 1-4.5 4.504zm0 0" class="cls-1" data-name="Path 125" transform="translate(-111.259 -111.259)"/>
        <path id="Path_126" d="M359.669 66.285a1.692 1.692 0 1 0 1.692 1.692 1.694 1.694 0 0 0-1.692-1.692zm0 2.156a.464.464 0 1 1 .465-.464.465.465 0 0 1-.465.465zm0 0" class="cls-1" data-name="Path 126" transform="translate(-343.333 -63.574)"/>
    </g>
</svg>
