<svg xmlns="http://www.w3.org/2000/svg" width="36.925" height="21.89" viewBox="0 0 36.925 21.89">
    <defs>
        <style>
            .cls-1{fill:none;stroke:#232323;stroke-width:1.9px}
        </style>
    </defs>
    <g id="vk" transform="translate(.968 .948)">
        <g id="Group_14" data-name="Group 14">
            <path id="Path_120" d="M34.695 127.74c-.094-.158-.676-1.422-3.477-4.022-2.932-2.722-2.538-2.28.993-6.987 2.151-2.866 3.011-4.617 2.742-5.365-.256-.713-1.838-.525-1.838-.525l-5.26.031a1.2 1.2 0 0 0-.681.12 1.482 1.482 0 0 0-.464.565 30.469 30.469 0 0 1-1.945 4.1c-2.343 3.98-3.282 4.19-3.665 3.943-.891-.575-.667-2.315-.667-3.549 0-3.858.584-5.466-1.14-5.882a9.029 9.029 0 0 0-2.457-.245 11.364 11.364 0 0 0-4.367.446c-.6.293-1.061.947-.779.985a2.359 2.359 0 0 1 1.554.781 5.068 5.068 0 0 1 .521 2.383s.311 4.54-.724 5.1c-.711.387-1.685-.4-3.774-4.015a33.675 33.675 0 0 1-1.88-3.895 1.554 1.554 0 0 0-.433-.584 2.181 2.181 0 0 0-.81-.326l-5 .031s-.751.022-1.026.348c-.245.291-.02.891-.02.891s3.917 9.162 8.35 13.781a12.015 12.015 0 0 0 8.685 3.956h2.092a1.764 1.764 0 0 0 .954-.418 1.524 1.524 0 0 0 .287-.919s-.042-2.807 1.263-3.221c1.284-.407 2.934 2.713 4.683 3.914a3.312 3.312 0 0 0 2.326.709l4.676-.066s2.44-.142 1.281-2.065z" class="cls-1" data-name="Path 120" transform="translate(0 -109.924)"/>
        </g>
    </g>
</svg>
