<svg xmlns="http://www.w3.org/2000/svg" id="avatar" width="15.062" height="15.062" viewBox="0 0 15.062 15.062">
    <defs>
        <style>
            .cls-1{fill:#50acde}
        </style>
    </defs>
    <g id="Group_25" data-name="Group 25">
        <path id="Path_155" d="M12.39 11.324l-2.4-.6-.2-.818A4.327 4.327 0 0 0 11 7.5a.943.943 0 0 0 .68-.789l.157-1.255a.94.94 0 0 0-.6-1l.058-1.182.235-.235a1.448 1.448 0 0 0 .034-1.955A2.637 2.637 0 0 0 9.181 0 4.136 4.136 0 0 0 6.8.629c-2.673.056-3.037 1.3-3.037 2.509 0 .282.068.916.114 1.3a.942.942 0 0 0-.65 1.015l.157 1.255a.944.944 0 0 0 .755.808A4.354 4.354 0 0 0 5.295 9.85l-.218.874-2.4.6A3.52 3.52 0 0 0 0 14.748a.314.314 0 0 0 .314.314h14.434a.315.315 0 0 0 .314-.315 3.522 3.522 0 0 0-2.672-3.423z" class="cls-1" data-name="Path 155"/>
    </g>
</svg>
