<svg xmlns="http://www.w3.org/2000/svg" viewBox="0 0 28.613 17.059">
    <defs>
        <style>
            .cls-1{fill:none;stroke:#50acde;stroke-width:1.7px}
        </style>
    </defs>
    <g id="vk" transform="translate(.864 .848)">
        <g id="Group_14" data-name="Group 14">
            <path id="Path_120" d="M26.658 123.613a11.993 11.993 0 0 0-2.672-3.09c-2.253-2.091-1.95-1.752.763-5.368 1.653-2.2 2.313-3.547 2.107-4.122-.2-.548-1.412-.4-1.412-.4l-4.042.024a.924.924 0 0 0-.523.092 1.138 1.138 0 0 0-.356.434 23.412 23.412 0 0 1-1.495 3.154c-1.8 3.058-2.522 3.22-2.816 3.03-.684-.442-.513-1.779-.513-2.727 0-2.964.449-4.2-.876-4.519a6.938 6.938 0 0 0-1.888-.188 8.732 8.732 0 0 0-3.356.343c-.461.225-.815.728-.6.757a1.813 1.813 0 0 1 1.194.6 3.894 3.894 0 0 1 .4 1.831s.239 3.489-.556 3.922c-.546.3-1.295-.309-2.9-3.085a25.875 25.875 0 0 1-1.443-3.001 1.194 1.194 0 0 0-.333-.449 1.676 1.676 0 0 0-.622-.251l-3.843.024s-.577.017-.789.267c-.188.224-.015.684-.015.684s3.009 7.039 6.416 10.589a9.232 9.232 0 0 0 6.673 3.04h1.607a1.355 1.355 0 0 0 .733-.321 1.171 1.171 0 0 0 .22-.706s-.032-2.157.97-2.475c.987-.313 2.255 2.085 3.6 3.008a2.545 2.545 0 0 0 1.787.545l3.593-.05s1.878-.114.987-1.592z" class="cls-1" data-name="Path 120" transform="translate(0 -109.924)"/>
        </g>
    </g>
</svg>
