<?xml version="1.0" encoding="UTF-8" standalone="no"?>
<svg
   xmlns:dc="http://purl.org/dc/elements/1.1/"
   xmlns:cc="http://creativecommons.org/ns#"
   xmlns:rdf="http://www.w3.org/1999/02/22-rdf-syntax-ns#"
   xmlns:svg="http://www.w3.org/2000/svg"
   xmlns="http://www.w3.org/2000/svg"
   xmlns:sodipodi="http://sodipodi.sourceforge.net/DTD/sodipodi-0.dtd"
   xmlns:inkscape="http://www.inkscape.org/namespaces/inkscape"
   width="206.57828"
   height="164.4062"
   viewBox="0 0 206.57828 164.4062"
   version="1.1"
   id="svg45"
   sodipodi:docname="mask-w.svg"
   inkscape:version="0.92.4 (f8dce91, 2019-08-02)">
  <metadata
     id="metadata49">
    <rdf:RDF>
      <cc:Work
         rdf:about="">
        <dc:format>image/svg+xml</dc:format>
        <dc:type
           rdf:resource="http://purl.org/dc/dcmitype/StillImage" />
        <dc:title></dc:title>
      </cc:Work>
    </rdf:RDF>
  </metadata>
  <sodipodi:namedview
     pagecolor="#ffffff"
     bordercolor="#666666"
     borderopacity="1"
     objecttolerance="10"
     gridtolerance="10"
     guidetolerance="10"
     inkscape:pageopacity="0"
     inkscape:pageshadow="2"
     inkscape:window-width="1920"
     inkscape:window-height="1135"
     id="namedview47"
     showgrid="false"
     fit-margin-top="0"
     fit-margin-left="0"
     fit-margin-right="0"
     fit-margin-bottom="0"
     inkscape:zoom="2.6516704"
     inkscape:cx="80.427392"
     inkscape:cy="78.609546"
     inkscape:window-x="0"
     inkscape:window-y="0"
     inkscape:window-maximized="1"
     inkscape:current-layer="svg45" />
  <defs
     id="defs39">
    <style
       id="style35">
            .cls-1,.cls-4{fill:none}.cls-2{clip-path:url(#clip-path)}.cls-3{fill:#fff}.cls-4{stroke:#fff;stroke-width:1.5px}
        </style>
    <clipPath
       id="clip-path">
      <path
         id="Rectangle_65"
         d="M 0,0 H 218 V 178.001 H 0 Z"
         class="cls-1"
         data-name="Rectangle 65"
         inkscape:connector-curvature="0"
         style="fill:none" />
    </clipPath>
  </defs>
  <path
     style="fill:#ffffff;fill-opacity:1;fill-rule:nonzero;stroke-width:3.0169661;stroke-linejoin:miter;stroke-miterlimit:4;stroke-dasharray:none;paint-order:normal"
     d="M 47.367497,153.66479 C 35.550224,124.14666 31.460068,114.69047 30.710129,115.15396 c -0.499697,0.30883 -0.613404,0.0145 -0.304942,-0.78935 C 30.712622,113.56345 25.104307,98.852569 15.448531,75.132565 6.9518385,54.259935 0,36.776636 0,36.280791 0,35.784946 5.3123975,27.89266 11.805328,18.742378 20.277583,6.8026974 23.781564,2.4108953 24.215987,3.1871664 c 0.332931,0.594915 6.937791,17.3461676 14.677467,37.2250076 7.739676,19.878839 14.390621,36.746812 14.779881,37.484393 0.882825,1.672794 1.567521,1.263211 3.574401,-2.1382 0.872139,-1.478162 1.201681,-2.450229 0.732315,-2.160145 -0.518642,0.320538 -0.71639,0.116421 -0.504128,-0.520364 0.192095,-0.576285 0.75762,-1.04779 1.256723,-1.04779 1.229361,0 2.313556,-1.885659 1.821486,-3.167973 -0.237361,-0.618553 0.02089,-0.952876 0.635464,-0.822639 0.569432,0.120673 0.945897,-0.218606 0.836588,-0.753952 -0.310796,-1.522123 1.312763,-4.028959 2.238728,-3.456681 0.495777,0.306406 0.619951,0.170166 0.306767,-0.336577 -0.289394,-0.468248 1.473868,-3.829924 3.918362,-7.470392 C 79.347057,39.853014 104.08533,1.445523 104.08533,0.7582762 104.08533,0.3412243 104.42474,0 104.83957,0 c 0.41484,0 0.75425,0.4699197 0.75425,1.0442659 0,1.4362071 43.34351,77.5366771 44.15599,77.5269921 0.35885,-0.0045 7.45614,-17.171873 15.77176,-38.150211 8.3156,-20.978338 15.28899,-38.1312504 15.4964,-38.1175829 0.20742,0.013668 6.04334,7.6181713 12.96872,16.8988969 l 12.59159,16.874049 -16.50964,42.725284 c -9.48674,24.550756 -16.31244,43.239176 -16.04606,43.933336 0.27405,0.71417 0.15243,1.01575 -0.2975,0.73768 -0.44635,-0.27586 -3.96776,7.86032 -8.51557,19.67511 -4.26498,11.08001 -7.98166,20.3965 -8.2593,20.7033 -0.27764,0.3068 -12.16978,-19.80316 -26.42698,-44.68881 -14.25721,-24.885651 -26.12873,-45.246638 -26.38116,-45.246638 -0.25244,0 -11.993219,20.361597 -26.090628,45.247988 -14.097411,24.88639 -25.801359,45.24554 -26.008775,45.24255 -0.207417,-0.003 -2.311243,-4.83663 -4.67517,-10.74142 z"
     id="path2485"
     inkscape:connector-curvature="0" />
</svg>
