<svg xmlns="http://www.w3.org/2000/svg" width="137.63" height="106.96" viewBox="0 0 137.63 106.96">
    <defs>
        <style>
            .cls-1{fill:#f0f8fa}
        </style>
    </defs>
    <g id="Page-1" transform="translate(.03 -.28)">
        <g id="_" data-name="?" transform="translate(-1)">
            <g id="Combined-Shape">
                <path id="Path_359" d="M9.79 101.84a2.893 2.893 0 0 1 2.07.765 2.513 2.513 0 0 1 .81 1.9 2.586 2.586 0 0 1-.825 1.935 2.845 2.845 0 0 1-2.055.795 2.845 2.845 0 0 1-2.055-.795 2.586 2.586 0 0 1-.825-1.935 2.513 2.513 0 0 1 .81-1.9 2.893 2.893 0 0 1 2.07-.765zm-.33-16.2a9.421 9.421 0 0 1 5.535 1.47 4.716 4.716 0 0 1 2.085 4.08 5.37 5.37 0 0 1-.405 2.16 5.72 5.72 0 0 1-.99 1.575q-.585.645-1.515 1.485a12.607 12.607 0 0 0-1.62 1.665 2.634 2.634 0 0 0-.51 1.635H7.51l.006-.279a4.282 4.282 0 0 1 .7-2.3 13.787 13.787 0 0 1 2.055-2.25 11.972 11.972 0 0 0 1.455-1.515 2.253 2.253 0 0 0 .465-1.395 2.057 2.057 0 0 0-.885-1.755 3.912 3.912 0 0 0-2.356-.646 5.234 5.234 0 0 0-2.5.585A5.339 5.339 0 0 0 4.6 91.79L.97 89.66l.2-.29a8.425 8.425 0 0 1 3.206-2.68 11.452 11.452 0 0 1 5.084-1.05zM114.3 78.8a9.645 9.645 0 0 1 6.9 2.55 8.377 8.377 0 0 1 2.7 6.35 8.62 8.62 0 0 1-2.75 6.45 10.178 10.178 0 0 1-13.7 0 8.62 8.62 0 0 1-2.75-6.45 8.377 8.377 0 0 1 2.7-6.35 9.645 9.645 0 0 1 6.9-2.55zm-1.1-54q11.5 0 18.45 4.9a15.719 15.719 0 0 1 6.95 13.6 17.9 17.9 0 0 1-1.35 7.2 19.067 19.067 0 0 1-3.3 5.25Q132 57.9 128.9 60.7a42.025 42.025 0 0 0-5.4 5.55 8.779 8.779 0 0 0-1.7 5.45h-15.1v-.449a14.534 14.534 0 0 1 2.35-8.151 45.956 45.956 0 0 1 6.85-7.5 39.908 39.908 0 0 0 4.85-5.05 7.511 7.511 0 0 0 1.55-4.65 6.858 6.858 0 0 0-2.95-5.85 13.039 13.039 0 0 0-7.85-2.15 17.446 17.446 0 0 0-8.35 1.95A17.8 17.8 0 0 0 97 45.3l-12.1-7.1.3-.453A28.039 28.039 0 0 1 96.25 28.3a38.174 38.174 0 0 1 16.95-3.5zm-54.62 7.88a5.787 5.787 0 0 1 4.14 1.53 5.026 5.026 0 0 1 1.62 3.81 5.172 5.172 0 0 1-1.65 3.87 6.107 6.107 0 0 1-8.22 0 5.172 5.172 0 0 1-1.65-3.87 5.026 5.026 0 0 1 1.62-3.81 5.787 5.787 0 0 1 4.14-1.53zM57.92.28q6.9 0 11.07 2.94a9.431 9.431 0 0 1 4.17 8.16 10.74 10.74 0 0 1-.81 4.32 11.44 11.44 0 0 1-1.98 3.15q-1.17 1.29-3.03 2.97a25.215 25.215 0 0 0-3.24 3.33 5.268 5.268 0 0 0-1.02 3.27h-9.06l.006-.386a8.656 8.656 0 0 1 1.4-4.774 27.573 27.573 0 0 1 4.11-4.5 23.945 23.945 0 0 0 2.91-3.03 4.506 4.506 0 0 0 .93-2.79 4.115 4.115 0 0 0-1.77-3.51A7.824 7.824 0 0 0 56.9 8.14a10.467 10.467 0 0 0-5.01 1.17 10.679 10.679 0 0 0-3.69 3.27l-7.26-4.26.256-.38a16.832 16.832 0 0 1 6.554-5.56A22.9 22.9 0 0 1 57.92.28z" class="cls-1" data-name="Path 359"/>
            </g>
        </g>
    </g>
</svg>
