<svg xmlns="http://www.w3.org/2000/svg" viewBox="0 0 63.9 58"><defs><style>.prefix__cls-1{fill:#7ed4ef;stroke:#232323;stroke-width:2.5px}</style></defs><g id="prefix__Group_88" data-name="Group 88" transform="translate(1.3 1.3)"><path id="prefix__Rectangle_36" d="M0 0h5.6v8.2H0z" class="prefix__cls-1" data-name="Rectangle 36" transform="rotate(-90 16.5 13.2)"/><path id="prefix__Rectangle_37" d="M0 0h5.6v8.2H0z" class="prefix__cls-1" data-name="Rectangle 37" transform="rotate(-90 40 -10.2)"/><path id="prefix__Rectangle_39" d="M0 0h5.6v8.2H0z" class="prefix__cls-1" data-name="Rectangle 39" transform="rotate(180 16.8 7.8)"/><rect id="prefix__Rectangle_34" width="5.7" height="27" class="prefix__cls-1" data-name="Rectangle 34" rx="2.9" transform="translate(55.7 18.2)"/><rect id="prefix__Rectangle_33" width="5.7" height="27" class="prefix__cls-1" data-name="Rectangle 33" rx="2.9" transform="translate(0 18.2)"/><path id="prefix__Path_230" d="M2.9 0a2.9 2.9 0 012.8 2.9 83 83 0 012.3 18 87.9 87.9 0 01-2.3 18.5 2.9 2.9 0 11-5.7 0V3A2.9 2.9 0 012.9 0z" class="prefix__cls-1" data-name="Path 230" transform="rotate(-90 8.8 -.8)"/><path id="prefix__Path_229" d="M8.6 0h21.9A8.6 8.6 0 0139 8.6v22.8c0 4.7-8.6 8.6-8.6 8.6A39.1 39.1 0 0119 42a31.1 31.1 0 01-10.5-2S0 36 0 31.4V8.6A8.6 8.6 0 018.6 0z" class="prefix__cls-1" data-name="Path 229" transform="translate(11.2 13.4)"/></g></svg>